<svg width="142" height="133" viewBox="0 0 142 133" fill="none" xmlns="http://www.w3.org/2000/svg">
<path d="M15.9763 0H14.7863C14.0363 0 13.2763 0.153076 12.5463 0.265337L11.6563 0.398013C10.7563 0.520478 9.85632 0.683769 9.17632 0.816441L8.34631 0.959316C7.76449 1.04196 7.18709 1.15436 6.61631 1.2961C6.25631 1.39815 5.88631 1.52062 5.50631 1.6635C5.06292 1.82923 4.62892 2.02002 4.20632 2.235C3.8498 2.46469 3.51502 2.72775 3.20632 3.02081L3.10632 3.11267L3.00631 3.20452C2.62457 3.56131 2.28857 3.96592 2.00631 4.40875C1.8595 4.63155 1.73233 4.86721 1.62631 5.11293L1.37631 5.33746C0.756985 5.97436 0.399296 6.82854 0.376314 7.72553C0.246314 9.42984 0.096313 11.6955 0.016313 14.0019C0.016313 14.6857 0.016313 15.3796 0.016313 16.043C0.016313 16.3083 0.016313 16.5635 0.016313 16.8186C0.016313 17.931 0.016313 19.0434 0.016313 20.1558C0.016313 21.5948 0.016313 23.0541 0.016313 24.4727C0.016313 26.9322 -0.0536851 29.4632 0.0963149 31.9533C0.172417 33.1823 0.31934 34.4057 0.536317 35.6171C0.710294 36.575 1.04884 37.4941 1.53632 38.3317C2.43594 39.751 3.75188 40.844 5.29631 41.4546C6.04849 41.7974 6.82799 42.0739 7.62631 42.2812C8.28631 42.4445 8.96631 42.5466 9.62631 42.6486C10.5663 42.7813 11.5163 42.8834 12.3263 42.965C13.1363 43.0467 14.0563 43.1181 15.0163 43.1691C15.9763 43.2202 16.6763 43.2406 17.3963 43.2406C18.5397 43.2474 19.6823 43.1758 20.8163 43.0263L21.2663 42.9752C21.8374 42.9099 22.4048 42.8145 22.9663 42.6895C23.4665 42.5724 23.9604 42.4293 24.4463 42.2608C25.5131 41.8966 26.5497 41.4461 27.5463 40.9137C27.9123 40.7145 28.2663 40.4929 28.6063 40.2504V40.2504C29.1876 39.875 29.7304 39.4408 30.2263 38.9543C31.0402 38.1534 31.7163 37.2184 32.2263 36.1886C32.8614 34.8972 33.3222 33.524 33.5963 32.1064C33.8344 30.8545 34.0079 29.5907 34.1163 28.3202C34.2863 26.5852 34.3163 24.8095 34.3563 23.0848V22.5439C34.3563 20.4211 34.4163 18.4617 34.4163 16.5329C34.4218 14.3819 34.2006 12.2366 33.7563 10.134C33.5024 8.99069 33.1199 7.88115 32.6163 6.82746C32.1988 5.95852 31.6138 5.18446 30.8963 4.55163C30.2876 4.01595 29.6158 3.55999 28.8963 3.19432C27.8687 2.72004 26.8134 2.31103 25.7363 1.96965L25.2563 1.80637C24.6463 1.60226 24.0063 1.38794 23.3763 1.20424C21.4171 0.622761 19.408 0.233193 17.3763 0.040815C17.0063 0.0204041 16.4863 0 15.9763 0Z" fill="#03A9F4"/>
<path d="M72.7464 25.7483C73.3331 25.7483 73.9231 25.7483 74.5164 25.7483C75.9492 25.8211 77.3738 26.0122 78.7764 26.3198C79.3699 26.4467 79.952 26.6242 80.5164 26.8505C81.2705 27.117 81.9867 27.4842 82.6464 27.9424C83.3875 28.4298 83.9582 29.1444 84.2764 29.9835C84.4774 30.4232 84.6478 30.8768 84.7864 31.3409C84.9691 31.9415 85.1062 32.5557 85.1964 33.1778C85.5915 36.0404 85.712 38.9354 85.5564 41.8219C85.5564 43.1792 85.4964 44.5467 85.4364 45.9041C85.4014 47.4202 85.2812 48.9331 85.0764 50.4353C85.0219 50.9792 84.9009 51.514 84.7164 52.0273C84.5625 52.4668 84.3752 52.8933 84.1564 53.303C83.9365 53.6941 83.6857 54.0661 83.4064 54.4154C83.164 54.7428 82.8855 55.0408 82.5764 55.3033C82.2622 55.5531 81.9276 55.775 81.5764 55.9667C81.3251 56.1045 81.0644 56.2239 80.7964 56.3238C80.5002 56.4524 80.1962 56.5614 79.8864 56.6504C79.5844 56.7389 79.2771 56.8071 78.9664 56.8545C78.4964 56.9158 78.0364 56.9974 77.5664 57.028C76.2264 57.1199 74.8864 57.1403 73.5664 57.0995L71.4664 57.0076L70.4664 56.9158C70.0031 56.8735 69.5424 56.8053 69.0864 56.7116C68.6901 56.6471 68.3014 56.5411 67.9264 56.3953C67.4241 56.2062 66.9444 55.9597 66.4964 55.6605C66.0189 55.328 65.6082 54.9054 65.2864 54.4154C64.9907 53.9308 64.7492 53.4139 64.5664 52.8744C64.3094 52.0884 64.1515 51.2722 64.0964 50.4455C63.9631 49.1848 63.9096 47.9167 63.9364 46.6491C63.9364 43.8426 64.0464 41.0258 64.0864 38.2193C64.0864 36.8586 64.0864 35.4979 64.0864 34.1372V33.5963C64.0282 33.0405 64.0048 32.4814 64.0164 31.9226C64.0164 31.8001 64.0164 31.6776 64.0164 31.5552C64.0164 31.0347 64.0164 30.5346 63.9464 30.0039C63.9353 29.7129 63.9889 29.423 64.1032 29.1562C64.2175 28.8893 64.3895 28.6523 64.6064 28.4629C64.6898 28.2951 64.7868 28.1346 64.8964 27.9833C65.2764 27.4207 65.7888 26.9646 66.3864 26.6565C66.7564 26.4653 67.141 26.3049 67.5364 26.1769C67.8228 26.099 68.1132 26.0377 68.4064 25.9932C69.1702 25.8623 69.9421 25.7873 70.7164 25.7687L72.7464 25.7483ZM69.1764 29.5753C68.9462 29.6175 68.719 29.6754 68.4964 29.7488L68.2764 29.8815L68.2064 29.9529V30.0039C68.2864 31.3 68.3564 32.5961 68.3864 33.9024C68.4664 36.6239 68.5331 39.3658 68.5864 42.128C68.5864 44.7508 68.5864 47.3634 68.9364 49.9658C69.0198 50.565 69.1537 51.1557 69.3364 51.7314V51.8028L69.5364 51.9151C70.0069 52.0734 70.4882 52.1962 70.9764 52.2825C72.1964 52.4254 73.4264 52.5172 74.6564 52.5886C75.9116 52.6754 77.1712 52.6754 78.4264 52.5886C78.8614 52.5126 79.2896 52.4 79.7064 52.2519L80.0164 52.0682C80.1472 51.943 80.2708 51.8101 80.3864 51.6702C80.5353 51.4379 80.6689 51.1958 80.7864 50.9456C80.8861 50.6625 80.9663 50.3726 81.0264 50.0781C81.2362 47.5463 81.3163 45.0051 81.2664 42.4648C81.325 39.7853 81.2482 37.1045 81.0364 34.4331C80.9142 33.4993 80.7032 32.5799 80.4064 31.6879L80.3064 31.5144L80.1464 31.3409C79.8256 31.1344 79.4915 30.9503 79.1464 30.7898C78.9064 30.6979 78.6764 30.6061 78.4264 30.5346C78.1764 30.4632 77.6664 30.3203 77.2864 30.2285C76.5683 30.0411 75.8405 29.8946 75.1064 29.7896C74.1064 29.6672 73.1764 29.5651 72.2064 29.5039L70.4864 29.5141C70.0489 29.5055 69.6113 29.5259 69.1764 29.5753V29.5753Z" fill="#03A9F4"/>
<path d="M102.236 94.8292C103.526 94.8292 104.826 94.8292 106.116 94.921C106.766 94.921 107.406 95.0129 108.056 95.0129C108.706 95.0129 109.256 95.0129 109.856 95.0129C111.29 95.0511 112.716 95.2288 114.116 95.5435C115.356 95.8293 116.606 96.0742 117.846 96.3804C119.413 96.6326 120.911 97.2129 122.246 98.0847C122.689 98.4009 123.098 98.7634 123.466 99.1665C123.867 99.5938 124.204 100.079 124.466 100.605C124.827 101.341 125.118 102.11 125.336 102.902C125.676 104.137 125.976 105.382 126.286 106.627C126.936 109.178 127.346 111.729 127.746 114.383C127.956 115.72 128.176 117.057 128.356 118.404C128.576 120.006 128.716 121.619 128.806 123.241C128.946 125.915 129.066 128.589 128.986 131.263C128.986 132.753 128.876 134.243 128.796 135.733C128.707 137.312 128.536 138.886 128.286 140.448C128.139 141.35 127.877 142.228 127.506 143.06C127.207 143.693 126.827 144.283 126.376 144.816C125.863 145.429 125.255 145.953 124.576 146.367C123.989 146.724 123.378 147.038 122.746 147.306H122.676L122.346 147.449L122.206 147.51C121.596 147.765 120.976 148.02 120.346 148.245C119.716 148.469 119.096 148.653 118.466 148.837L117.286 149.173C116.47 149.376 115.642 149.522 114.806 149.612C114.186 149.694 113.546 149.755 112.916 149.806C110.157 150.002 107.39 150.049 104.626 149.949C101.742 149.903 98.8654 149.616 96.0264 149.092C94.7488 148.849 93.4866 148.529 92.2464 148.132C91.4471 147.879 90.6625 147.579 89.8964 147.234C89.3154 146.991 88.7675 146.672 88.2664 146.285C87.6141 145.829 87.0595 145.242 86.6364 144.56C86.3464 144.052 86.134 143.501 86.0064 142.928C85.8518 142.102 85.7515 141.267 85.7064 140.427C85.6264 139.131 85.5964 137.835 85.6364 136.539C85.8264 130.905 85.9164 125.262 86.0264 119.628C86.0964 116.138 86.1664 112.648 86.1964 109.158C86.1054 109.054 86.025 108.941 85.9564 108.821C85.7775 108.512 85.6841 108.159 85.6864 107.8C85.6114 106.482 85.6114 105.159 85.6864 103.841C85.6551 102.294 85.9626 100.76 86.5864 99.3502C87.0317 98.4292 87.7256 97.6573 88.5864 97.1254C89.2222 96.7828 89.8929 96.5125 90.5864 96.3192C91.1764 96.1457 91.7664 95.9314 92.3764 95.7987C92.9864 95.666 93.5464 95.5231 94.1364 95.4313C94.7264 95.3394 95.3164 95.2374 95.9064 95.1353C96.6764 95.0129 97.4464 94.9312 98.2264 94.8598C99.4864 94.8292 100.876 94.8292 102.236 94.8292ZM94.8164 99.6053L93.2964 99.8298L93.6264 99.7788C93.0364 99.8911 92.4564 100.034 91.8764 100.197C91.4764 100.309 91.0764 100.412 90.6864 100.554L90.3264 100.748L90.2264 100.861C90.1064 101.044 89.9964 101.218 89.8864 101.412C89.7764 101.606 89.7964 101.779 89.7564 101.973C89.6764 102.83 89.6764 103.708 89.6664 104.575C89.6564 105.443 89.6664 106.025 89.6664 106.749V107.382C89.7264 112.954 89.8464 118.536 89.9664 124.109C90.0264 126.997 90.0764 129.875 90.1464 132.753C90.2064 135.263 90.2764 137.774 90.5664 140.264C90.6344 140.83 90.7481 141.39 90.9064 141.938V142.029L91.1664 142.285C91.5304 142.53 91.9114 142.749 92.3064 142.938C93.3359 143.341 94.3877 143.681 95.4564 143.958C96.0564 144.111 96.6564 144.264 97.2664 144.377C97.8764 144.489 98.6764 144.622 99.3864 144.724C102.044 145.01 104.715 145.143 107.386 145.122C108.686 145.122 109.976 145.122 111.266 145.122C112.556 145.122 113.636 144.969 114.816 144.826C115.975 144.6 117.117 144.297 118.236 143.917C118.976 143.693 119.696 143.417 120.416 143.121L120.746 142.968C121.259 142.732 121.75 142.452 122.216 142.132L122.606 141.754C122.716 141.58 122.816 141.397 122.916 141.213C123.062 140.763 123.172 140.303 123.246 139.835C123.375 138.564 123.438 137.286 123.436 136.008C123.436 134.518 123.436 133.018 123.436 131.528C123.436 130.038 123.376 128.742 123.306 127.354C123.166 124.792 123.046 122.251 122.736 119.7C122.496 117.924 122.216 116.159 121.986 114.393C121.756 112.627 121.426 110.607 120.986 108.719C120.786 107.759 120.586 106.79 120.356 105.831C120.126 104.871 119.966 104.188 119.696 103.392C119.596 103.208 119.496 103.024 119.386 102.851C119.25 102.688 119.103 102.534 118.946 102.391C118.789 102.286 118.625 102.191 118.456 102.106C117.238 101.654 115.996 101.272 114.736 100.963C114.056 100.789 113.376 100.605 112.736 100.412C112.187 100.255 111.63 100.132 111.066 100.044C110.546 99.9829 110.066 99.9421 109.506 99.9013C108.946 99.8605 108.356 99.9013 107.776 99.8196L105.926 99.6768C104.566 99.5849 103.196 99.5033 101.826 99.442C100.456 99.3808 99.1964 99.3094 97.8864 99.3604C96.8764 99.3502 95.8464 99.4726 94.8164 99.6053Z" fill="#99DDC6"/>
<path d="M112.376 36.1068H113.376C114.716 36.1068 116.056 36.1987 117.376 36.2803C118.696 36.3619 120.096 36.4538 121.456 36.515C122.816 36.5763 124.026 36.7293 125.316 36.811C126.606 36.8926 127.956 37.0253 129.316 37.1171C130.779 37.1678 132.229 37.4009 133.636 37.8111C134.375 38.0677 135.091 38.3887 135.776 38.7704C136.561 39.1761 137.261 39.7342 137.836 40.4135C138.32 41.0004 138.726 41.6487 139.046 42.3424C139.356 43.0874 139.636 43.8323 139.876 44.608C140.274 45.8416 140.566 47.1085 140.746 48.3942C140.961 49.9362 141.082 51.4905 141.106 53.0479C141.105 54.3237 141.028 55.5983 140.876 56.8647C140.726 58.3955 140.616 59.9264 140.346 61.447C140.128 62.7811 139.794 64.0927 139.346 65.3659C139.08 66.1074 138.745 66.8216 138.346 67.4988C138.154 67.792 137.947 68.0747 137.726 68.3459C137.6 68.5329 137.456 68.7071 137.296 68.8664C136.873 69.2602 136.407 69.6027 135.906 69.8869C134.458 70.6237 132.873 71.0409 131.256 71.1116C129.926 71.2646 128.596 71.3769 127.256 71.4586C125.916 71.5402 124.586 71.5402 123.256 71.5504C121.926 71.5606 120.606 71.5504 119.256 71.5504C117.906 71.5504 116.446 71.5504 115.036 71.4688C113.626 71.3871 112.486 71.285 111.216 71.1932C109.946 71.1014 108.566 70.9687 107.216 70.8054C106.306 70.6931 105.396 70.5809 104.496 70.3972C103.821 70.2639 103.154 70.0936 102.496 69.8869C100.764 69.4796 99.1859 68.5644 97.9564 67.2539C97.6089 66.8452 97.2945 66.4083 97.0164 65.9476C96.742 65.4665 96.511 64.961 96.3264 64.4372C96.0419 63.5742 95.8573 62.6803 95.7764 61.7736C95.6514 60.4942 95.6514 59.2054 95.7764 57.9261C95.8764 56.4973 96.0564 55.0686 96.2464 53.65L96.6364 50.6904C96.8264 49.0371 97.0064 47.3941 97.2764 45.7612C97.3895 45.1089 97.5431 44.4647 97.7364 43.8323C97.9172 43.2274 98.1343 42.6344 98.3864 42.0566C98.6691 41.4734 99.0218 40.9283 99.4364 40.4339C99.9398 39.7855 100.533 39.2149 101.196 38.7398L101.486 38.699L101.676 38.5765C102.236 38.242 102.821 37.9553 103.426 37.7193C104.901 37.0418 106.5 36.6938 108.116 36.6987V36.6987C108.404 36.5367 108.728 36.4524 109.056 36.4538H109.346C110.026 36.3619 110.696 36.2803 111.346 36.2395C111.716 36.117 112.046 36.1068 112.376 36.1068ZM108.756 41.6892C108.561 41.7124 108.368 41.7465 108.176 41.7912C107.734 41.8914 107.3 42.0245 106.876 42.1893C106.216 42.475 105.581 42.8164 104.976 43.2098L104.776 43.3425C104.639 43.4743 104.509 43.614 104.386 43.7609C104.204 44.0314 104.04 44.3144 103.896 44.608C103.631 45.4652 103.43 46.3421 103.296 47.2308C102.996 49.7005 102.806 52.1906 102.506 54.6603C102.346 56.0381 102.226 57.4158 102.156 58.8038C102.086 59.881 102.086 60.9617 102.156 62.0389C102.226 62.3349 102.296 62.6308 102.386 62.9268C102.487 63.1196 102.597 63.3069 102.716 63.4881L102.856 63.6412C103.143 63.8259 103.44 63.9929 103.746 64.1412C104.541 64.4578 105.356 64.717 106.186 64.9168C107.076 65.1312 107.996 65.2536 108.906 65.3965C110.006 65.5394 111.106 65.6516 112.206 65.7945C113.576 65.9782 114.936 66.0905 116.316 66.1619C119.026 66.315 121.746 66.3456 124.466 66.3864C126.941 66.436 129.417 66.3167 131.876 66.0292C132.335 65.9615 132.787 65.8522 133.226 65.7027L133.646 65.4577L133.836 65.2536C134.111 64.825 134.352 64.3745 134.556 63.9065C134.946 62.6497 135.237 61.3631 135.426 60.059C135.526 59.2222 135.596 58.3853 135.656 57.5485C135.716 56.7116 135.836 55.7217 135.906 54.8032C135.976 53.8847 135.986 52.905 135.976 51.9457C135.966 50.9864 135.926 50.0985 135.826 49.18C135.718 48.2833 135.557 47.3939 135.346 46.5164C135.139 45.6189 134.885 44.7333 134.586 43.863C134.479 43.6232 134.355 43.3913 134.216 43.169L134.126 43.0771C133.849 42.8946 133.562 42.7277 133.266 42.5771C132.673 42.3512 132.06 42.1804 131.436 42.0668C130.436 41.975 129.436 41.9545 128.516 41.8831C127.396 41.7912 126.276 41.7504 125.156 41.6586C123.846 41.5667 122.536 41.4545 121.226 41.3932C119.916 41.332 118.716 41.2708 117.456 41.1891H116.836C114.126 41.3422 111.426 41.3932 108.756 41.6892V41.6892Z" fill="#4D4962"/>
<path d="M68.9963 81.7254C68.9963 81.9805 68.9963 82.2254 68.9963 82.4805C68.9963 83.5011 68.9363 84.5216 68.8763 85.5422C68.8163 86.5627 68.7463 87.6445 68.6963 88.6957C68.6463 89.7469 68.5463 90.6755 68.4863 91.6757C68.4263 92.6758 68.3263 93.7168 68.2463 94.7373C68.2118 95.8703 68.0405 96.9946 67.7363 98.0847C67.5494 98.6534 67.3117 99.2034 67.0263 99.7278C66.7305 100.341 66.3154 100.886 65.8063 101.33C65.3741 101.703 64.8927 102.012 64.3763 102.249C63.828 102.496 63.2672 102.714 62.6963 102.902C61.7802 103.208 60.8401 103.433 59.8863 103.575C58.7428 103.738 57.5907 103.83 56.4363 103.851C55.487 103.846 54.5387 103.784 53.5963 103.667C52.4663 103.555 51.3263 103.473 50.2063 103.259C49.2145 103.09 48.2403 102.827 47.2963 102.473C46.7429 102.26 46.2105 101.993 45.7063 101.677C45.4863 101.534 45.2863 101.361 45.0863 101.208C44.9493 101.1 44.8191 100.984 44.6963 100.861C44.3947 100.537 44.1328 100.177 43.9163 99.789C43.3667 98.6705 43.0533 97.4467 42.9963 96.1967C42.8863 95.1762 42.8063 94.1556 42.7463 93.1351C42.6863 92.1145 42.6863 91.094 42.6763 90.0734C42.6663 89.0529 42.6763 88.0323 42.6763 87.0118C42.6763 85.9912 42.6763 84.838 42.7263 83.746C42.7763 82.654 42.8663 81.7866 42.9363 80.7967C43.0063 79.8067 43.0963 78.7556 43.2263 77.735C43.3063 77.0308 43.3863 76.3267 43.5263 75.6327C43.6271 75.1161 43.7539 74.6051 43.9063 74.1019C44.2151 72.7543 44.9116 71.5317 45.9063 70.5912C46.2195 70.322 46.554 70.0796 46.9063 69.8666C47.2638 69.6567 47.6385 69.4792 48.0263 69.3359C48.6732 69.1097 49.3449 68.9657 50.0263 68.9073C50.9739 68.8104 51.9287 68.8104 52.8763 68.9073C53.9463 68.9787 54.9963 69.1216 56.0563 69.2747L58.2463 69.5706C59.4663 69.7237 60.6963 69.8564 61.9063 70.0605C62.389 70.153 62.8663 70.2723 63.3363 70.4177C63.7861 70.5602 64.2269 70.7306 64.6563 70.928C65.0882 71.1436 65.4915 71.4145 65.8563 71.7342C66.336 72.1247 66.7601 72.5816 67.1163 73.0915L67.2363 73.2854L67.3263 73.4283C67.5715 73.8608 67.7854 74.3111 67.9663 74.7754C68.4673 75.9184 68.7263 77.1564 68.7263 78.4086V78.4086C68.8496 78.6331 68.9149 78.886 68.9163 79.1434V79.3679C68.9863 79.8884 69.0463 80.3884 69.0763 80.9395C68.9963 81.2151 68.9963 81.4702 68.9963 81.7254ZM64.8663 78.929C64.8663 78.776 64.8663 78.6229 64.7863 78.48C64.7082 78.1335 64.608 77.7926 64.4863 77.4595C64.2642 76.9496 64.0034 76.4582 63.7063 75.9899L63.5963 75.8368C63.504 75.7272 63.4037 75.6249 63.2963 75.5306C63.0956 75.3892 62.8851 75.263 62.6663 75.153C62.0116 74.9475 61.3432 74.7905 60.6663 74.6836C58.8363 74.459 56.9963 74.306 55.1563 74.0815C54.1563 73.959 53.1563 73.8671 52.0863 73.8059C51.2871 73.7549 50.4855 73.7549 49.6863 73.8059C49.4625 73.8517 49.2419 73.9131 49.0263 73.9896C48.8798 74.059 48.7393 74.1409 48.6063 74.2345L48.4963 74.3468C48.3579 74.5677 48.231 74.7959 48.1163 75.0306C47.8844 75.6459 47.6939 76.2767 47.5463 76.9186C47.3863 77.6125 47.2963 78.3167 47.1863 78.9597C47.0863 79.8169 46.9963 80.6742 46.8863 81.5212C46.7563 82.5418 46.6763 83.6338 46.6163 84.6951C46.5063 86.7873 46.4863 88.8896 46.4563 90.9919C46.4179 92.9041 46.5048 94.8168 46.7163 96.7172C46.7717 97.0639 46.8553 97.4052 46.9663 97.7377C47.0188 97.8475 47.0789 97.9532 47.1463 98.0541L47.2963 98.2072C47.6153 98.4168 47.9496 98.601 48.2963 98.7583C49.2304 99.0607 50.1868 99.286 51.1563 99.4318C51.7763 99.5033 52.3963 99.5645 53.0163 99.6053C53.6363 99.6461 54.3663 99.7482 55.0163 99.7992C55.6663 99.8503 56.4263 99.8605 57.1363 99.7992C57.8244 99.7974 58.512 99.76 59.1963 99.687C59.8698 99.6072 60.5378 99.4845 61.1963 99.3196C61.8729 99.1591 62.5406 98.9615 63.1963 98.7277C63.3747 98.646 63.5483 98.554 63.7163 98.4521L63.7763 98.3807C63.913 98.1676 64.0366 97.9461 64.1463 97.7173C64.3172 97.2545 64.4444 96.776 64.5263 96.2885C64.5963 95.5435 64.6063 94.7883 64.6663 94.0433C64.7263 93.2983 64.7663 92.3084 64.8263 91.4409C64.8863 90.5735 64.9863 89.3999 65.0263 88.3793C65.0663 87.3588 65.1163 86.4301 65.1763 85.4606C65.1763 85.2973 65.1763 85.1442 65.1763 84.9809C65.1163 83.0725 65.0763 80.9906 64.8663 78.929Z" fill="#4D4962"/>
</svg>
